<?xml version="1.0" encoding="utf-8"?>
<!-- Generator: Adobe Illustrator 23.0.2, SVG Export Plug-In . SVG Version: 6.00 Build 0)  -->
<svg version="1.1" id="图层_1" xmlns="http://www.w3.org/2000/svg" xmlns:xlink="http://www.w3.org/1999/xlink" x="0px" y="0px"
	 viewBox="0 0 85 28" style="enable-background:new 0 0 85 28;" xml:space="preserve" width="85" height="28">
<style type="text/css">
	.st0{fill-rule:evenodd;clip-rule:evenodd;fill:#231815;}
	.st1{fill-rule:evenodd;clip-rule:evenodd;fill:#009FE8;}
</style>
<g>
	<path class="st0" d="M36.5,5h5V3.4c0-0.3,0.2-0.5,0.5-0.5H44c0.3,0,0.5,0.2,0.5,0.5V5h5c0.1,0,0.2,0.1,0.2,0.2v0.5
		c0,0.1-0.1,0.2-0.2,0.2h-5v1.6l0,0h3.9c0,0,0,0,0.1,0l0.5,0c0,0-1,3.3-4.7,6.1c1.4,1,3.2,1.9,5.4,2.3v1.2c0,0-3.3-0.6-6.7-2.6
		c-1.7,1.1-3.9,2-6.6,2.6l0-1.1c0-0.1,3.2-1,5.4-2.4c-1.4-1-2.8-2.4-3.9-4.1h2.3c0,0,0.9,1.5,2.9,3c1.7-1.8,2.6-3.2,3-4.1h-8.6
		c-0.1,0-0.2-0.1-0.2-0.2V7.9c0-0.1,0.1-0.2,0.2-0.2h4.1l0,0V6h-5c-0.1,0-0.2-0.1-0.2-0.2V5.2C36.3,5.1,36.4,5,36.5,5z"/>
	<path class="st0" d="M54.7,7.2l0,9.7c0,0.1-0.1,0.2-0.2,0.2h-1.9c-0.1,0-0.2-0.1-0.2-0.2v-1.2c0-2.1,0-4.2,0-6.3h-2.3l3-6.4h2.5
		l-2,4.1L54.7,7.2L54.7,7.2z M55.8,5.7h5.7c0-0.7,0-1.3,0-2c0-0.2,0.2-0.3,0.3-0.3h1.6c0.2,0,0.3,0.2,0.3,0.3v2h0.9
		c0.1,0,0.2,0.1,0.2,0.2v0.6c0,0.1-0.1,0.2-0.2,0.2h-0.9v7.5l0,0c0,0,0,0.9,0,1.9c0,1-1.2,0.9-1.2,0.9l-2.8,0.1V16
		c0,0,1.1,0.1,1.4-0.2c0.3-0.2,0.2-0.5,0.2-0.8c0-2.8,0-5.6,0-8.4h-5.7c-0.1,0-0.2-0.1-0.2-0.2V5.9C55.6,5.8,55.7,5.7,55.8,5.7
		L55.8,5.7z M56.5,8.1c-0.1,0-0.1,0.1-0.1,0.1l1.6,4.3c0,0.1,0.1,0.1,0.2,0.1h2c0.1,0,0.1-0.1,0.1-0.1l-1.6-4.3
		c0-0.1-0.1-0.1-0.2-0.1H56.5z"/>
	<path class="st0" d="M66.6,4.4h1.1h1.2h2.6V3.1C71.5,3,71.6,3,71.7,3h2.4c0.1,0,0.2,0.1,0.2,0.2v1.3h2.5h1.3h1
		c0.1,0,0.2,0.1,0.2,0.2v2c0,0.1-0.1,0.2-0.2,0.2h-2.2c-0.1,0-0.2-0.1-0.2-0.2V5.3h-7.6v1.3c0,0.1-0.1,0.2-0.2,0.2h-2.2
		c-0.1,0-0.2-0.1-0.2-0.2v-2C66.5,4.5,66.5,4.4,66.6,4.4L66.6,4.4z M74.2,8.5v2.1h4.9c0.1,0,0.2,0.1,0.2,0.2v0.6
		c0,0.1-0.1,0.2-0.2,0.2h-4.9v4.3h2.5l-0.7-2c0-0.1,0-0.1,0.1-0.1h2c0.1,0,0.2,0.1,0.2,0.1l0.8,2.5l0,0c0,0,0,0.1,0,0.1v0.1
		c0,0.1-0.1,0.2-0.2,0.2H66.7c-0.1,0-0.2-0.1-0.2-0.2V16c0-0.1,0.1-0.2,0.2-0.2h4.9v-4.3h-4.9c-0.1,0-0.2-0.1-0.2-0.2v-0.6
		c0-0.1,0.1-0.2,0.2-0.2h4.9V8.5h-4.9c-0.1,0-0.2-0.1-0.2-0.2V7.8c0-0.1,0.1-0.2,0.2-0.2h12.4c0.1,0,0.2,0.1,0.2,0.2v0.6
		c0,0.1-0.1,0.2-0.2,0.2H74.2z"/>
	<path class="st0" d="M43.1,24.8c0,0.1,0,0.1,0,0.2c0,0,0,0.1,0,0.1c0,0-0.1,0-0.1,0c-0.1,0-0.1,0-0.2,0c-0.1,0-0.2,0-0.2,0
		c-0.1,0-0.1,0-0.1,0c0,0-0.1,0-0.1,0c0,0,0,0,0-0.1l-0.5-1.5h-2.6L38.6,25c0,0,0,0.1,0,0.1c0,0,0,0-0.1,0.1c0,0-0.1,0-0.1,0
		c-0.1,0-0.1,0-0.2,0c-0.1,0-0.2,0-0.2,0c-0.1,0-0.1,0-0.1,0c0,0,0-0.1,0-0.1c0,0,0-0.1,0-0.2l2.1-5.6c0,0,0-0.1,0.1-0.1
		c0,0,0.1,0,0.1-0.1c0,0,0.1,0,0.2,0c0.1,0,0.1,0,0.2,0c0.1,0,0.2,0,0.3,0c0.1,0,0.1,0,0.2,0c0,0,0.1,0,0.1,0.1c0,0,0,0.1,0.1,0.1
		L43.1,24.8L43.1,24.8z M40.4,19.9L40.4,19.9l-1.1,3h2.2L40.4,19.9L40.4,19.9z M50.3,24.8c0,0.1,0,0.1,0,0.2c0,0,0,0.1,0,0.1
		c0,0,0,0.1-0.1,0.1c0,0,0,0-0.1,0h-2.8c-0.1,0-0.1,0-0.2-0.1c-0.1,0-0.1-0.1-0.1-0.3v-5.5c0,0,0,0,0-0.1c0,0,0,0,0.1,0
		c0,0,0.1,0,0.1,0c0.1,0,0.1,0,0.2,0c0.1,0,0.1,0,0.2,0c0.1,0,0.1,0,0.1,0c0,0,0.1,0,0.1,0c0,0,0,0,0,0.1v5.2h2.2c0,0,0.1,0,0.1,0
		c0,0,0,0,0.1,0.1c0,0,0,0.1,0,0.1C50.3,24.6,50.3,24.7,50.3,24.8L50.3,24.8z M54.9,25C54.9,25,54.9,25,54.9,25
		c0,0.1-0.1,0.1-0.1,0.1c0,0-0.1,0-0.1,0c-0.1,0-0.1,0-0.2,0c-0.1,0-0.1,0-0.2,0c-0.1,0-0.1,0-0.1,0c0,0-0.1,0-0.1,0c0,0,0,0,0-0.1
		v-5.7c0,0,0,0,0-0.1c0,0,0,0,0.1,0c0,0,0.1,0,0.1,0c0.1,0,0.1,0,0.2,0c0.1,0,0.1,0,0.2,0c0.1,0,0.1,0,0.1,0c0,0,0.1,0,0.1,0
		c0,0,0,0,0,0.1V25L54.9,25z M63.2,20.9c0,0.3-0.1,0.6-0.2,0.8c-0.1,0.2-0.3,0.4-0.4,0.6c-0.2,0.2-0.4,0.3-0.7,0.4
		c-0.3,0.1-0.6,0.1-1,0.1h-0.7V25c0,0,0,0,0,0.1c0,0,0,0-0.1,0c0,0-0.1,0-0.1,0c-0.1,0-0.1,0-0.2,0c-0.1,0-0.1,0-0.2,0
		c-0.1,0-0.1,0-0.1,0c0,0-0.1,0-0.1,0c0,0,0,0,0-0.1v-5.5c0-0.1,0-0.2,0.1-0.3c0.1-0.1,0.1-0.1,0.2-0.1h1.3c0.1,0,0.3,0,0.4,0
		c0.1,0,0.3,0,0.4,0.1c0.2,0,0.3,0.1,0.5,0.2c0.2,0.1,0.3,0.2,0.4,0.4c0.1,0.1,0.2,0.3,0.3,0.5C63.2,20.4,63.2,20.7,63.2,20.9
		L63.2,20.9z M62.4,20.9c0-0.2,0-0.4-0.1-0.6C62.1,20.2,62,20,61.9,20c-0.1-0.1-0.3-0.1-0.4-0.2c-0.2,0-0.3,0-0.4,0h-0.8v2.4H61
		c0.3,0,0.5,0,0.6-0.1c0.2-0.1,0.3-0.1,0.4-0.3c0.1-0.1,0.2-0.2,0.3-0.4C62.3,21.3,62.4,21.1,62.4,20.9L62.4,20.9z M71.3,24.8
		c0,0.1,0,0.1,0,0.2c0,0,0,0.1,0,0.1c0,0-0.1,0-0.1,0c-0.1,0-0.1,0-0.2,0c-0.1,0-0.2,0-0.2,0c-0.1,0-0.1,0-0.1,0c0,0-0.1,0-0.1,0
		c0,0,0,0,0-0.1l-0.5-1.5h-2.6L66.8,25c0,0,0,0.1,0,0.1c0,0,0,0-0.1,0.1c0,0-0.1,0-0.1,0c-0.1,0-0.1,0-0.2,0c-0.1,0-0.2,0-0.2,0
		c-0.1,0-0.1,0-0.1,0c0,0,0-0.1,0-0.1c0,0,0-0.1,0-0.2l2.1-5.6c0,0,0-0.1,0.1-0.1c0,0,0.1,0,0.1-0.1c0,0,0.1,0,0.2,0
		c0.1,0,0.1,0,0.2,0c0.1,0,0.2,0,0.3,0c0.1,0,0.1,0,0.2,0c0,0,0.1,0,0.1,0.1c0,0,0,0.1,0.1,0.1L71.3,24.8L71.3,24.8z M68.6,19.9
		L68.6,19.9l-1.1,3h2.2L68.6,19.9L68.6,19.9z M76.5,22.8V25c0,0,0,0,0,0.1c0,0,0,0-0.1,0c0,0-0.1,0-0.1,0c-0.1,0-0.1,0-0.2,0
		c-0.1,0-0.1,0-0.2,0c-0.1,0-0.1,0-0.1,0c0,0-0.1,0-0.1,0c0,0,0,0,0-0.1v-2.2l-1.8-3.4c0-0.1-0.1-0.1-0.1-0.2c0,0,0-0.1,0-0.1
		c0,0,0.1,0,0.1,0c0.1,0,0.1,0,0.3,0c0.1,0,0.2,0,0.2,0c0.1,0,0.1,0,0.1,0c0,0,0.1,0,0.1,0c0,0,0,0,0,0.1l0.9,1.7
		c0.1,0.2,0.2,0.3,0.2,0.5c0.1,0.2,0.2,0.4,0.2,0.5h0c0.1-0.2,0.2-0.4,0.2-0.5c0.1-0.2,0.2-0.3,0.2-0.5l0.9-1.7c0,0,0-0.1,0-0.1
		c0,0,0,0,0.1,0c0,0,0.1,0,0.1,0c0.1,0,0.1,0,0.2,0c0.1,0,0.2,0,0.3,0c0.1,0,0.1,0,0.1,0c0,0,0,0.1,0,0.1c0,0,0,0.1-0.1,0.2
		L76.5,22.8z"/>
	<path class="st1" d="M10.9,1H27c2.8,0,5.2,2.3,5.2,5.2V19c-1.9-0.7-6-2.1-8.9-3c1.6-2.8,2.3-5.4,2.3-5.4h-5.1V8.8h6.2V8h-6.2v-3
		h-2.8v3h-6.2v0.8h6.2v1.8h-5.4v1h10.1c-0.2,1.7-0.7,2.6-1.5,3.7c-5.1-1.4-9.1-2.2-11.6-0.1c-2.6,2.1-1.2,8.9,6.2,7.4
		c2.8-0.6,4.9-2.3,6.4-4.4l10.3,4.4c-0.2,2.7-2.4,4.8-5.1,4.8H10.9c-2.8,0-5.2-2.3-5.2-5.2V6.2C5.7,3.3,8,1,10.9,1L10.9,1z
		 M19.5,17.2c-4.8-2.6-7.6-2.4-9.1-1.5c-1.6,0.9-2.3,3.1-0.6,4.5c0.4,0.3,1,0.6,1.7,0.7C16.2,22,19.5,17.2,19.5,17.2z"/>
</g>
</svg>
